HIERARCHY
ROOT Hips
{
	OFFSET 0.00000 0.00000 0.00000
	CHANNELS 6 Xposition Yposition Zposition Zrotation Yrotation Xrotation 
	JOINT LHipJoint
	{
		OFFSET 0 0 0
		CHANNELS 3 Zrotation Yrotation Xrotation
		JOINT LeftUpLeg
		{
			OFFSET 1.53794 -1.55850 0.93568
			CHANNELS 3 Zrotation Yrotation Xrotation
			JOINT LeftLeg
			{
				OFFSET 2.28545 -6.27922 0.00000
				CHANNELS 3 Zrotation Yrotation Xrotation
				JOINT LeftFoot
				{
					OFFSET 2.37329 -6.52057 0.00000
					CHANNELS 3 Zrotation Yrotation Xrotation
					JOINT LeftToeBase
					{
						OFFSET 0.14846 -0.40788 2.09160
						CHANNELS 3 Zrotation Yrotation Xrotation
						End Site
						{
							OFFSET 0.00000 -0.00000 1.07536
						}
					}
				}
			}
		}
	}
	JOINT RHipJoint
	{
		OFFSET 0 0 0
		CHANNELS 3 Zrotation Yrotation Xrotation
		JOINT RightUpLeg
		{
			OFFSET -1.78290 -1.55850 0.93568
			CHANNELS 3 Zrotation Yrotation Xrotation
			JOINT RightLeg
			{
				OFFSET -2.24144 -6.15831 0.00000
				CHANNELS 3 Zrotation Yrotation Xrotation
				JOINT RightFoot
				{
					OFFSET -2.35091 -6.45907 0.00000
					CHANNELS 3 Zrotation Yrotation Xrotation
					JOINT RightToeBase
					{
						OFFSET -0.14428 -0.39641 2.07944
						CHANNELS 3 Zrotation Yrotation Xrotation
						End Site
						{
							OFFSET -0.00000 -0.00000 1.06864
						}
					}
				}
			}
		}
	}
	JOINT LowerBack
	{
		OFFSET 0 0 0
		CHANNELS 3 Zrotation Yrotation Xrotation
		JOINT Spine
		{
			OFFSET -0.08841 2.11430 -0.15818
			CHANNELS 3 Zrotation Yrotation Xrotation
			JOINT Spine1
			{
				OFFSET -0.00033 2.12605 -0.08097
				CHANNELS 3 Zrotation Yrotation Xrotation
				JOINT Neck
				{
					OFFSET 0 0 0
					CHANNELS 3 Zrotation Yrotation Xrotation
					JOINT Neck1
					{
						OFFSET 0.04431 1.59447 0.43193
						CHANNELS 3 Zrotation Yrotation Xrotation
						JOINT Head
						{
							OFFSET 0.00455 1.62017 -0.58852
							CHANNELS 3 Zrotation Yrotation Xrotation
							End Site
							{
								OFFSET -0.00920 1.72955 -0.25850
							}
						}
					}
				}
				JOINT LeftShoulder
				{
					OFFSET 0 0 0
					CHANNELS 3 Zrotation Yrotation Xrotation
					JOINT LeftArm
					{
						OFFSET 2.86490 1.49927 -0.33774
						CHANNELS 3 Zrotation Yrotation Xrotation
						JOINT LeftForeArm
						{
							OFFSET 4.87408 -0.00000 0.00000
							CHANNELS 3 Zrotation Yrotation Xrotation
							JOINT LeftHand
							{
								OFFSET 2.76729 -0.00000 0.00000
								CHANNELS 3 Zrotation Yrotation Xrotation
								JOINT LeftFingerBase
								{
									OFFSET 0 0 0
									CHANNELS 3 Zrotation Yrotation Xrotation
									JOINT LeftHandIndex1
									{
										OFFSET 0.98922 -0.00000 0.00000
										CHANNELS 3 Zrotation Yrotation Xrotation
										End Site
										{
											OFFSET 0.79753 -0.00000 0.00000
										}
									}
								}
								JOINT LThumb
								{
									OFFSET 0 0 0
									CHANNELS 3 Zrotation Yrotation Xrotation
									End Site
									{
										OFFSET 0.80972 -0.00000 0.80972
									}
								}
							}
						}
					}
				}
				JOINT RightShoulder
				{
					OFFSET 0 0 0
					CHANNELS 3 Zrotation Yrotation Xrotation
					JOINT RightArm
					{
						OFFSET -2.94414 1.45463 -0.25291
						CHANNELS 3 Zrotation Yrotation Xrotation
						JOINT RightForeArm
						{
							OFFSET -4.71404 -0.00000 0.00000
							CHANNELS 3 Zrotation Yrotation Xrotation
							JOINT RightHand
							{
								OFFSET -2.83468 -0.00000 0.00000
								CHANNELS 3 Zrotation Yrotation Xrotation
								JOINT RightFingerBase
								{
									OFFSET 0 0 0
									CHANNELS 3 Zrotation Yrotation Xrotation
									JOINT RightHandIndex1
									{
										OFFSET -0.86820 -0.00000 0.00000
										CHANNELS 3 Zrotation Yrotation Xrotation
										End Site
										{
											OFFSET -0.69996 -0.00000 0.00000
										}
									}
								}
								JOINT RThumb
								{
									OFFSET 0 0 0
									CHANNELS 3 Zrotation Yrotation Xrotation
									End Site
									{
										OFFSET -0.71065 -0.00000 0.71065
									}
								}
							}
						}
					}
				}
			}
		}
	}
}
MOTION
Frames: 7
Frame Time: .0083333
-9.0715 16.1457 -0.1279 172.0710 27.5185 -169.8780 0.0000 0.0000 0.0000 -9.6714 -21.0406 -48.6720 16.2633 19.6619 79.0152 -0.5656 21.7896 10.6246 0.0782 1.8043 4.9652 0.0000 0.0000 0.0000 27.7578 5.8349 3.9691 -1.5401 -7.8341 22.2112 -0.1340 -5.3419 7.0098 -2.1536 9.1789 -26.3566 -0.7462 4.7909 -0.5238 -3.2683 6.4738 -0.1949 -2.8661 3.2721 0.3889 -1.0827 -5.3349 -34.3381 1.8986 -6.4242 41.6685 -0.3078 -1.2839 24.9121 -0.0000 -0.0000 0.0000 -67.0117 31.8769 52.4759 100.8255 -59.5525 -69.3611 -0.0000 -0.0000 18.9073 15.1512 6.5334 1.7647 -7.1250 0.0000 -0.0000 -9.7759 36.5927 2.0454 -0.0000 -0.0000 0.0000 75.5383 -6.1669 49.5530 -81.7244 59.7396 -52.8394 0.0000 0.0000 11.6628 -13.7760 -2.6277 0.6440 7.1250 -0.0000 -0.0000 10.3455 -32.5643 3.1957
-8.9078 16.2817 -0.4749 171.9290 28.0092 -169.6230 0.0000 0.0000 0.0000 -9.4105 -21.7118 -48.9953 15.1193 19.4190 75.5958 -0.5290 21.4871 10.6685 0.0771 1.7906 4.9274 0.0000 0.0000 0.0000 27.1137 5.1573 5.4732 -1.2157 -6.9941 19.6978 -0.4212 -6.1047 11.6780 -2.0115 8.8900 -25.4518 -0.8997 4.9470 -0.8972 -3.5052 6.7013 -0.4086 -2.9964 3.3911 0.3993 -1.1147 -5.4795 -34.1650 2.0839 -6.6901 41.8038 -0.2632 -1.3303 25.0123 0.0000 0.0000 0.0000 -66.4633 32.6858 52.6181 102.1485 -59.4349 -70.5010 -0.0000 -0.0000 18.6190 15.1111 6.5571 1.7662 -7.1250 0.0000 -0.0000 -9.8131 36.6145 2.0481 0.0000 0.0000 0.0000 75.3335 -6.2545 50.3014 -83.6192 59.8456 -54.4770 0.0000 0.0000 12.0702 -13.5574 -2.1372 0.5152 7.1250 -0.0000 -0.0000 10.4580 -32.0616 3.3604
-8.7409 16.4121 -0.8224 171.7900 28.5449 -169.3650 0.0000 0.0000 0.0000 -9.2085 -22.2008 -49.1884 13.9409 19.0960 72.0240 -0.4578 20.9434 10.8143 0.0753 1.7698 4.8699 0.0000 0.0000 0.0000 26.4721 4.5514 6.9066 -0.9426 -6.1835 17.3178 -0.8261 -7.1152 16.2472 -1.8036 8.4444 -24.0723 -1.0848 5.0948 -1.2727 -3.7309 6.9202 -0.6367 -3.0975 3.5065 0.3910 -1.1451 -5.6029 -33.9578 2.2544 -6.9098 41.9466 -0.2113 -1.3624 25.1058 0.0000 -0.0000 0.0000 -65.9624 33.5126 52.7227 103.5271 -59.2972 -71.6871 -0.0000 -0.0000 18.3561 15.0568 6.6329 1.7798 -7.1250 0.0000 -0.0000 -9.8702 36.6885 2.0422 0.0000 -0.0000 0.0000 75.1161 -6.3923 51.0265 -85.3121 59.9168 -55.9413 0.0000 0.0000 12.5070 -13.3366 -1.7459 0.4138 7.1250 -0.0000 -0.0000 10.5850 -31.6604 3.5063
-8.5708 16.5354 -1.1695 171.6830 29.1280 -169.0810 0.0000 0.0000 0.0000 -9.0405 -22.5073 -49.2781 12.7474 18.6891 68.3391 -0.3598 20.1847 11.0415 0.0711 1.7197 4.7317 0.0000 0.0000 0.0000 25.8784 4.0453 8.2255 -0.7250 -5.4406 15.1697 -1.3259 -8.3035 20.6051 -1.5274 7.8033 -22.1183 -1.2837 5.2440 -1.6574 -3.9434 7.1436 -0.8757 -3.1761 3.6246 0.3737 -1.1611 -5.7152 -33.7493 2.4029 -7.1094 42.0927 -0.1681 -1.3883 25.1997 0.0000 0.0000 0.0000 -65.4876 34.3307 52.8127 104.9712 -59.1359 -72.9279 -0.0000 -0.0000 18.1216 14.9962 6.7580 1.8055 -7.1250 0.0000 -0.0000 -9.9406 36.8124 2.0266 0.0000 0.0000 0.0000 74.9053 -6.5663 51.7020 -86.8065 59.9614 -57.2347 0.0000 0.0000 12.8987 -13.1386 -1.4298 0.3337 7.1250 -0.0000 -0.0000 10.7030 -31.3366 3.6314
-8.3983 16.6509 -1.5153 171.6220 29.7454 -168.7600 0.0000 0.0000 0.0000 -8.8877 -22.6535 -49.2822 11.5538 18.1956 64.5673 -0.2447 19.2452 11.3205 0.0656 1.6531 4.5479 0.0000 0.0000 0.0000 25.3505 3.6258 9.3687 -0.5642 -4.8109 13.3700 -1.8819 -9.6120 24.6171 -1.1998 6.9498 -19.5667 -1.4844 5.3877 -2.0568 -4.1328 7.3618 -1.1129 -3.2273 3.7405 0.3628 -1.1895 -5.8226 -33.5507 2.5562 -7.2935 42.2496 -0.1140 -1.4095 25.3126 0.0000 0.0000 0.0000 -65.0669 35.1048 52.8648 106.4401 -58.9537 -74.1876 -0.0000 -0.0000 17.9176 14.9371 6.8966 1.8347 -7.1250 0.0000 -0.0000 -10.0124 36.9498 2.0075 0.0000 0.0000 0.0000 74.6895 -6.7458 52.3322 -88.1411 59.9869 -58.3902 0.0000 0.0000 13.1652 -12.8940 -1.2151 0.2781 7.1250 -0.0000 -0.0000 10.8696 -31.1146 3.7487
-8.2238 16.7579 -1.8598 171.6060 30.3995 -168.4090 0.0000 0.0000 0.0000 -8.7588 -22.6526 -49.1943 10.3749 17.6154 60.7343 -0.1208 18.1575 11.6321 0.0575 1.5476 4.2570 0.0000 0.0000 0.0000 24.8957 3.3110 10.2886 -0.4593 -4.3476 12.0567 -2.4318 -11.0319 28.0772 -0.8910 6.0165 -16.8324 -1.6907 5.5321 -2.4696 -4.2985 7.5832 -1.3390 -3.2477 3.8581 0.3666 -1.2535 -5.9405 -33.4547 2.7108 -7.4830 42.4122 -0.0568 -1.4387 25.4809 0.0000 -0.0000 0.0000 -64.6942 35.8059 52.9070 107.9015 -58.7538 -75.4383 -0.0000 -0.0000 17.7461 14.9113 7.0543 1.8731 -7.1250 0.0000 -0.0000 -10.0597 37.1087 1.9776 0.0000 -0.0000 0.0000 74.4896 -6.9273 52.8938 -89.3182 59.9982 -59.4096 0.0000 0.0000 13.2568 -12.6079 -1.0793 0.2414 7.1250 -0.0000 -0.0000 11.0782 -30.9720 3.8617
-8.0480 16.8555 -2.2026 171.6180 31.0665 -168.0400 0.0000 0.0000 0.0000 -8.6639 -22.5512 -49.0122 9.2254 16.9506 56.8664 0.0044 16.9537 11.9581 0.0462 1.3879 3.8168 0.0000 0.0000 0.0000 24.5032 3.0877 10.9381 -0.4059 -4.0902 11.3305 -2.9011 -12.5996 30.7777 -0.6560 5.1807 -14.4247 -1.9159 5.6679 -2.8906 -4.4392 7.7955 -1.5518 -3.2297 3.9713 0.3816 -1.3184 -6.0528 -33.4025 2.8498 -7.6629 42.5659 -0.0069 -1.4688 25.6600 0.0000 -0.0000 0.0000 -64.3852 36.4347 52.9271 109.3397 -58.5385 -76.6665 -0.0000 -0.0000 17.5815 14.9177 7.1981 1.9119 -7.1250 0.0000 -0.0000 -10.0781 37.2553 1.9447 0.0000 -0.0000 0.0000 74.3032 -7.1025 53.3972 -90.3266 59.9996 -60.2828 0.0000 0.0000 13.1015 -12.3153 -0.9988 0.2180 7.1250 -0.0000 -0.0000 11.2978 -30.8849 3.9650
